# xmcd
#
# Track frame offsets:
#	150
#	16485
#	32325
#	64675
#	96226
#	124499
#
# Disc length: 2031 seconds
#
# Revision: 1
# Processed by: cddbd v1.5.2PL0 Copyright (c) Steve Scherf et al.
# Submitted via: audiograbber 1.83.01
#
DISCID=4907ed06
DTITLE=Unit 28 - CD Single
DYEAR=1998
DGENRE=
TTITLE0=I Want My Freedom (Big Time Radio Edit)
TTITLE1=I Want My Freedom (Original Radio Edit)
TTITLE2=I Want My Freedom (Big Time Vocal Mix)
TTITLE3=I Want My Freedom (Big Time Vocal Dub)
TTITLE4=I Want My Freedom (Baffled's Crispy Duck Mix)
TTITLE5=I Want My Freedom (Baffled's Sax Dub)
EXTD=
EXTT0=
EXTT1=
EXTT2=
EXTT3=
EXTT4=
EXTT5=
PLAYORDER=
